# xmcd
#
# Track frame offsets:
#	187
#	17200
#	35882
#	49865
#	68917
#	87482
#	104277
#	119982
#	134280
#
# Disc length: 2043 seconds
#
# Revision: 1308645851
# Processed by: cddbd v1.5.2PL0 Copyright (c) Steve Scherf et al.
# Submitted via: EZCDAudioConverter 9.0.6.1
#
DISCID=8807f909
DTITLE=K.T. Oslin - 80's Ladies
DYEAR=1987
DGENRE=Country
TTITLE0=Wall Of Tears
TTITLE1=I'll Always Come Back
TTITLE2=Younger Men
TTITLE3=80's Ladies
TTITLE4=Do Ya'
TTITLE5=Two Hearts
TTITLE6=Dr., Dr.
TTITLE7=Lonely But Only For You
TTITLE8=Old Pictures
EXTD=
EXTT0=
EXTT1=
EXTT2=
EXTT3=
EXTT4=
EXTT5=
EXTT6=
EXTT7=
EXTT8=
PLAYORDER=
